<svg xmlns="http://www.w3.org/2000/svg" viewBox="0 0 58 58"><path d="M 44.418 4.377 C 40.014 1.642 36.16 0.365 30.286 0 C 24.78 5.107 24.964 15.503 30.286 20.245 C 32.489 11.491 37.628 6.748 44.418 4.377 Z M 50.842 9.302 C 42.582 8.937 36.159 16.415 36.159 23.711 C 42.95 19.151 50.842 18.969 57.449 22.616 C 56.349 16.78 54.265 13.703 50.842 9.302 Z M 58 30.094 C 52.86 24.623 42.767 25.17 37.811 30.277 C 45.904 32.23 50.291 35.931 53.962 44.138 C 56.764 39.541 58 36.114 58 30.095 L 58 30.094 Z M 48.823 50.522 C 48.273 41.767 42.299 36.617 34.324 36.113 C 38.452 43.287 39.28 49.975 35.609 57.27 C 41.089 55.78 44.235 54.352 48.823 50.522 Z M 27.717 58 C 33.039 52.71 33.407 44.138 27.717 37.755 C 25.514 46.692 20.742 51.251 13.585 53.805 C 18.514 56.794 21.715 57.468 27.717 58 Z M 7.528 48.698 C 16.102 47.902 21.66 42.315 21.66 34.107 C 16.337 38.302 7.344 38.849 0.37 35.748 C 2.318 41.415 3.866 44.378 7.528 48.698 Z M 0.003 27.723 C 4.591 32.648 14.135 33.377 20.192 27.723 C 11.565 25.717 6.513 20.665 4.224 14.043 C 1.654 17.874 -0.079 23.166 0.003 27.723 Z M 9.18 7.66 C 10.465 16.415 15.237 21.157 23.68 21.887 C 19.418 14.884 19.09 8.207 22.21 0.73 C 16.154 2.189 12.951 4.2 9.18 7.66 Z" fill="#F73737"/></svg>